<svg id="Layer_5" data-name="Layer 5" xmlns="http://www.w3.org/2000/svg" viewBox="0 0 477.63 445.92"><defs><style>.cls-1{fill:#d42027;}.cls-2{fill:#fff;}</style></defs><title>EXB</title><path class="cls-1" d="M515,323.45c19.5-8.7,27.3-24.3,27.3-40.5,0-42.3-30.9-60.9-72.3-60.9h-99.6v36.08h39V258H470c25.2,0,33,16.2,33,25.8,0,12-8.1,22.5-33,22.5H415.27v34.8H470c16.2,0,39.3,9.9,39.3,28.8,0,19.8-23.1,25.2-39.3,25.2h-99.6V432H470c43.5,0,78.6-15,78.6-61.8C548.63,357,539.63,330.95,515,323.45Z" transform="translate(-71 -222)"/><path class="cls-1" d="M351.13,222.12h43.5v1.8l-71.1,102,73.2,105v1.2h-44.4l-53.7-78.88-53.7,78.88h-44.4v-1.2l72.9-105-70.8-102v-1.8h43.5l52.5,78.28Z" transform="translate(-71 -222)"/><rect id="_3" data-name="3" class="cls-1" width="157.3" height="38.13"/><rect id="_2" data-name="2" class="cls-1" y="86.75" width="113.93" height="36.97"/><rect id="_1" data-name="1" class="cls-1" y="172.04" width="157.3" height="38.13"/><path class="cls-2" d="M162.27,485.79V610.53h-8.55V591.11C146.41,604.47,132,612,117,612c-24.59,0-44-16.22-44-45.44,0-29,19.6-45.44,44.2-45.44,15.15,0,29.4,6.42,36.53,20.67v-56h8.55ZM81.54,566.51c0,24.42,16.22,36.89,36,36.89,20.67,0,36-15.15,36-37.07s-15.68-36.89-36-36.89C97.76,529.45,81.54,541.74,81.54,566.51Z" transform="translate(-71 -222)"/><path class="cls-2" d="M199,493.81c0,9.27-14.08,9.27-14.08,0S199,484.54,199,493.81Zm-11.58,28.33v88.39h8.73V522.14h-8.73Z" transform="translate(-71 -222)"/><path class="cls-2" d="M291.82,518.93l5.7,5-8.55,10c6.24,6.77,10.87,15.68,10.87,29.94,0,15.33-9.09,30.83-23.7,37.42,15.5,5.52,24.06,16.39,24.06,31.54,0,23.7-18.53,35.11-41.88,35.11s-41.7-12.83-41.7-35.11h8.73c0,18,15.33,26.55,33,26.55s33.32-7.84,33.32-26.55c0-18.89-16.93-26.37-33.32-26.37-25.48,0-41.34-19.07-41.34-42.59,0-27.44,18.53-42.95,41.34-42.95a44.7,44.7,0,0,1,24.95,8Zm-66.12,44.91c0,18.18,12.47,33.86,32.61,33.86,18.18,0,33-15.68,33-33.86,0-22.28-14.79-34.22-33-34.22C240.32,529.63,225.71,540.85,225.71,563.84Z" transform="translate(-71 -222)"/><path class="cls-2" d="M329.42,493.81c0,9.27-14.08,9.27-14.08,0S329.42,484.54,329.42,493.81Zm-11.58,28.33v88.39h8.73V522.14h-8.73Z" transform="translate(-71 -222)"/><path class="cls-2" d="M371.65,495.95V522.5h29.94v7.31H371.65v53.64c0,11.94,2.5,20.32,16.22,20.32a32.65,32.65,0,0,0,13.54-3.56l3,7.13c-5.52,2.67-11,4.46-16.57,4.46-18.71,0-24.77-11-24.77-28.33V529.8H344.39V522.5H363.1V496.84Z" transform="translate(-71 -222)"/><path class="cls-2" d="M506.38,522.5v88h-8.73V591.82c-8.55,13.72-21.74,20.14-36,20.14-24.59,0-44.73-18.53-44.73-45.44s20.14-45.09,44.73-45.09c14.26,0,28.69,6.59,36,20.32V522.5h8.73Zm-80.73,44c0,22.1,16,36.89,36,36.89,49,0,49-73.6,0-73.6C441.69,529.8,425.65,544.42,425.65,566.51Z" transform="translate(-71 -222)"/><path class="cls-2" d="M538.8,485.79V610.53h-8.73V485.79h8.73Z" transform="translate(-71 -222)"/></svg>